# xmcd
#
# Track frame offsets: 
#        150
#        13333
#        33127
#
# Disc length: 704 seconds
#
# Revision: 0
# Processed by: cddbd v1.5.2PL0 Copyright (c) Steve Scherf et al.
# Submitted via: ExactAudioCopy v0.99pb5
#
DISCID=1a02be03
DTITLE=City High - What Would You Do
DYEAR=2001
DGENRE=R&B
TTITLE0=What Would You Do (Album Version)
TTITLE1=What Would You Do (X-men Remix)
TTITLE2=What Would You Do (Instrumental)
EXTD=
EXTT0=
EXTT1=
EXTT2=
PLAYORDER=
